<?xml version="1.0" encoding="UTF-8" standalone="no"?>
<!-- Created with Inkscape (http://www.inkscape.org/) -->

<svg
   xmlns:dc="http://purl.org/dc/elements/1.1/"
   xmlns:cc="http://creativecommons.org/ns#"
   xmlns:rdf="http://www.w3.org/1999/02/22-rdf-syntax-ns#"
   xmlns:svg="http://www.w3.org/2000/svg"
   xmlns="http://www.w3.org/2000/svg"
   xmlns:sodipodi="http://sodipodi.sourceforge.net/DTD/sodipodi-0.dtd"
   xmlns:inkscape="http://www.inkscape.org/namespaces/inkscape"
   width="189.93105"
   height="144.9234"
   id="svg3456"
   version="1.1"
   inkscape:version="0.48.2 r9819"
   sodipodi:docname="paiditLogoSVG.svg">
  <defs
     id="defs3458" />
  <sodipodi:namedview
     id="base"
     pagecolor="#ffffff"
     bordercolor="#666666"
     borderopacity="1.0"
     inkscape:pageopacity="0.0"
     inkscape:pageshadow="2"
     inkscape:zoom="0.35"
     inkscape:cx="19.836726"
     inkscape:cy="-100.7909"
     inkscape:document-units="px"
     inkscape:current-layer="layer1"
     showgrid="false"
     fit-margin-top="0"
     fit-margin-left="0"
     fit-margin-right="0"
     fit-margin-bottom="0"
     inkscape:window-width="1920"
     inkscape:window-height="1018"
     inkscape:window-x="-8"
     inkscape:window-y="-8"
     inkscape:window-maximized="1" />
  <metadata
     id="metadata3461">
    <rdf:RDF>
      <cc:Work
         rdf:about="">
        <dc:format>image/svg+xml</dc:format>
        <dc:type
           rdf:resource="http://purl.org/dc/dcmitype/StillImage" />
        <dc:title></dc:title>
      </cc:Work>
    </rdf:RDF>
  </metadata>
  <g
     inkscape:label="Layer 1"
     inkscape:groupmode="layer"
     id="layer1"
     transform="translate(-355.16327,-286.6479)">
    <g
       transform="translate(651.7099,-357.35975)"
       id="g3336"
       inkscape:export-filename="C:\Users\Justin\School\cs506\images\checkMark.png"
       inkscape:export-xdpi="300"
       inkscape:export-ydpi="300">
      <path
         style="fill:#248428;fill-opacity:1;fill-rule:evenodd;stroke:none"
         d="m -124.03639,654.13527 c -4.4443,0 -8.8757,1.68824 -12.2812,5.09375 l -87.6875,87.6875 -41.875,-41.84375 c -6.811,-6.81099 -17.7827,-6.81102 -24.5937,0 -6.8111,6.81101 -6.811,17.78276 0,24.59375 l 54.1562,54.15625 c 6.8111,6.81106 17.7827,6.81101 24.5938,0 0.2714,-0.2715 0.5001,-0.55958 0.75,-0.84375 0.2236,-0.20197 0.4718,-0.37813 0.6874,-0.59375 l 98.5626,-98.5625 c 6.811,-6.81102 6.8109,-17.78276 0,-24.59375 -3.4055,-3.4055 -7.8682,-5.09375 -12.3126,-5.09375 z"
         id="rect4068-9-4-7"
         inkscape:connector-curvature="0" />
      <path
         style="fill:#3dca45;fill-opacity:1;fill-rule:evenodd;stroke:none"
         d="m -125.00094,644.00765 c -4.4443,0 -8.8757,1.68824 -12.2812,5.09375 l -87.6875,87.6875 -41.875,-41.84375 c -6.811,-6.81099 -17.7827,-6.81102 -24.5937,0 -6.8111,6.81101 -6.811,17.78276 0,24.59375 l 54.1562,54.15626 c 6.8111,6.81106 17.7827,6.81101 24.5938,0 0.2714,-0.2715 0.5001,-0.55958 0.75,-0.84375 0.2236,-0.20197 0.4718,-0.37813 0.6874,-0.59375 l 98.5626,-98.56251 c 6.811,-6.81102 6.8109,-17.78276 0,-24.59375 -3.4055,-3.4055 -7.8682,-5.09375 -12.3126,-5.09375 z"
         id="rect4068-9-6"
         inkscape:connector-curvature="0" />
    </g>
  </g>
</svg>
